<?xml version="1.0" encoding="UTF-8" standalone="no"?>
<!DOCTYPE svg PUBLIC "-//W3C//DTD SVG 1.1//EN"
 "http://www.w3.org/Graphics/SVG/1.1/DTD/svg11.dtd">
<!-- Generated by graphviz version 2.40.1 (20161225.0304)
 -->
<!-- Title: dependencies Pages: 1 -->
<svg width="3256pt" height="284pt"
 viewBox="0.00 0.00 3256.00 284.00" xmlns="http://www.w3.org/2000/svg" xmlns:xlink="http://www.w3.org/1999/xlink">
<g id="graph0" class="graph" transform="scale(1 1) rotate(0) translate(4 280)">
<title>dependencies</title>
<polygon fill="#ffffff" stroke="transparent" points="-4,4 -4,-280 3252,-280 3252,4 -4,4"/>
<text text-anchor="start" x="1603.0091" y="-42.4" font-family="sans-serif" font-weight="bold" font-size="14.00" fill="#000000">Legend</text>
<polygon fill="#ffffb3" stroke="transparent" points="1390,-10 1390,-30 1410,-30 1410,-10 1390,-10"/>
<text text-anchor="start" x="1413.629" y="-15.4" font-family="sans-serif" font-size="14.00" fill="#000000"> &#160;Declarations</text>
<polygon fill="#8dd3c7" stroke="transparent" points="1503,-10 1503,-30 1523,-30 1523,-10 1503,-10"/>
<text text-anchor="start" x="1526.7251" y="-15.4" font-family="sans-serif" font-size="14.00" fill="#000000"> &#160;Module</text>
<polygon fill="#80b1d3" stroke="transparent" points="1589,-10 1589,-30 1609,-30 1609,-10 1589,-10"/>
<text text-anchor="start" x="1612.7812" y="-15.4" font-family="sans-serif" font-size="14.00" fill="#000000"> &#160;Bootstrap</text>
<polygon fill="#fdb462" stroke="transparent" points="1686,-10 1686,-30 1706,-30 1706,-10 1686,-10"/>
<text text-anchor="start" x="1709.6732" y="-15.4" font-family="sans-serif" font-size="14.00" fill="#000000"> &#160;Providers</text>
<polygon fill="#fb8072" stroke="transparent" points="1782,-10 1782,-30 1802,-30 1802,-10 1782,-10"/>
<text text-anchor="start" x="1805.7258" y="-15.4" font-family="sans-serif" font-size="14.00" fill="#000000"> &#160;Exports</text>
<g id="clust1" class="cluster">
<title>cluster_AppModule</title>
<polygon fill="none" stroke="#000000" stroke-dasharray="1,5" points="8,-70 8,-268 3240,-268 3240,-70 8,-70"/>
</g>
<g id="clust2" class="cluster">
<title>cluster_AppModule_declarations</title>
<polygon fill="none" stroke="#000000" points="831,-78 831,-130 3232,-130 3232,-78 831,-78"/>
</g>
<g id="clust18" class="cluster">
<title>cluster_AppModule_imports</title>
<polygon fill="none" stroke="#000000" points="679,-78 679,-130 823,-130 823,-78 679,-78"/>
</g>
<g id="clust20" class="cluster">
<title>cluster_AppModule_bootstrap</title>
<polygon fill="none" stroke="#000000" points="1595,-208 1595,-260 1719,-260 1719,-208 1595,-208"/>
</g>
<g id="clust21" class="cluster">
<title>cluster_AppModule_providers</title>
<polygon fill="none" stroke="#000000" points="16,-78 16,-130 671,-130 671,-78 16,-78"/>
</g>
<!-- AppComponent -->
<g id="node1" class="node">
<title>AppComponent</title>
<polygon fill="#ffffb3" stroke="#000000" points="3223.9399,-122 3118.0601,-122 3118.0601,-86 3223.9399,-86 3223.9399,-122"/>
<text text-anchor="middle" x="3171" y="-99.8" font-family="Times,serif" font-size="14.00" fill="#000000">AppComponent</text>
</g>
<!-- AppModule -->
<g id="node16" class="node">
<title>AppModule</title>
<polygon fill="#8dd3c7" stroke="#000000" points="1698.6571,-187 1695.6571,-191 1674.6571,-191 1671.6571,-187 1615.3429,-187 1615.3429,-151 1698.6571,-151 1698.6571,-187"/>
<text text-anchor="middle" x="1657" y="-164.8" font-family="Times,serif" font-size="14.00" fill="#000000">AppModule</text>
</g>
<!-- AppComponent&#45;&gt;AppModule -->
<g id="edge1" class="edge">
<title>AppComponent&#45;&gt;AppModule</title>
<path fill="none" stroke="#000000" d="M3171,-122.1532C3171,-145.7566 3171,-184 3171,-184 3171,-184 1708.6763,-184 1708.6763,-184"/>
<polygon fill="#000000" stroke="#000000" points="1708.6763,-180.5001 1698.6763,-184 1708.6762,-187.5001 1708.6763,-180.5001"/>
</g>
<!-- ChartComponent -->
<g id="node2" class="node">
<title>ChartComponent</title>
<polygon fill="#ffffb3" stroke="#000000" points="3100.4356,-122 2987.5644,-122 2987.5644,-86 3100.4356,-86 3100.4356,-122"/>
<text text-anchor="middle" x="3044" y="-99.8" font-family="Times,serif" font-size="14.00" fill="#000000">ChartComponent</text>
</g>
<!-- ChartComponent&#45;&gt;AppModule -->
<g id="edge2" class="edge">
<title>ChartComponent&#45;&gt;AppModule</title>
<path fill="none" stroke="#000000" d="M3044,-122.0109C3044,-144.4852 3044,-180 3044,-180 3044,-180 1708.888,-180 1708.888,-180"/>
<polygon fill="#000000" stroke="#000000" points="1708.8881,-176.5001 1698.888,-180 1708.888,-183.5001 1708.8881,-176.5001"/>
</g>
<!-- ChartFormComponent -->
<g id="node3" class="node">
<title>ChartFormComponent</title>
<polygon fill="#ffffb3" stroke="#000000" points="2969.2688,-122 2826.7312,-122 2826.7312,-86 2969.2688,-86 2969.2688,-122"/>
<text text-anchor="middle" x="2898" y="-99.8" font-family="Times,serif" font-size="14.00" fill="#000000">ChartFormComponent</text>
</g>
<!-- ChartFormComponent&#45;&gt;AppModule -->
<g id="edge3" class="edge">
<title>ChartFormComponent&#45;&gt;AppModule</title>
<path fill="none" stroke="#000000" d="M2898,-122.0449C2898,-143.6623 2898,-177 2898,-177 2898,-177 1709.0014,-177 1709.0014,-177"/>
<polygon fill="#000000" stroke="#000000" points="1709.0014,-173.5001 1699.0014,-177 1709.0014,-180.5001 1709.0014,-173.5001"/>
</g>
<!-- ConfirmDialog -->
<g id="node4" class="node">
<title>ConfirmDialog</title>
<polygon fill="#ffffb3" stroke="#000000" points="2808.5424,-122 2707.4576,-122 2707.4576,-86 2808.5424,-86 2808.5424,-122"/>
<text text-anchor="middle" x="2758" y="-99.8" font-family="Times,serif" font-size="14.00" fill="#000000">ConfirmDialog</text>
</g>
<!-- ConfirmDialog&#45;&gt;AppModule -->
<g id="edge4" class="edge">
<title>ConfirmDialog&#45;&gt;AppModule</title>
<path fill="none" stroke="#000000" d="M2758,-122.1289C2758,-142.5724 2758,-173 2758,-173 2758,-173 1708.8161,-173 1708.8161,-173"/>
<polygon fill="#000000" stroke="#000000" points="1708.8161,-169.5001 1698.8161,-173 1708.816,-176.5001 1708.8161,-169.5001"/>
</g>
<!-- ControlSliderComponent -->
<g id="node5" class="node">
<title>ControlSliderComponent</title>
<polygon fill="#ffffb3" stroke="#000000" points="2688.5504,-122 2531.4496,-122 2531.4496,-86 2688.5504,-86 2688.5504,-122"/>
<text text-anchor="middle" x="2610" y="-99.8" font-family="Times,serif" font-size="14.00" fill="#000000">ControlSliderComponent</text>
</g>
<!-- ControlSliderComponent&#45;&gt;AppModule -->
<g id="edge5" class="edge">
<title>ControlSliderComponent&#45;&gt;AppModule</title>
<path fill="none" stroke="#000000" d="M2610,-122.1061C2610,-141.3391 2610,-169 2610,-169 2610,-169 1708.8699,-169 1708.8699,-169"/>
<polygon fill="#000000" stroke="#000000" points="1708.87,-165.5001 1698.8699,-169 1708.8699,-172.5001 1708.87,-165.5001"/>
</g>
<!-- EditorComponent -->
<g id="node6" class="node">
<title>EditorComponent</title>
<polygon fill="#ffffb3" stroke="#000000" points="2513.3273,-122 2396.6727,-122 2396.6727,-86 2513.3273,-86 2513.3273,-122"/>
<text text-anchor="middle" x="2455" y="-99.8" font-family="Times,serif" font-size="14.00" fill="#000000">EditorComponent</text>
</g>
<!-- EditorComponent&#45;&gt;AppModule -->
<g id="edge6" class="edge">
<title>EditorComponent&#45;&gt;AppModule</title>
<path fill="none" stroke="#000000" d="M2455,-122.2667C2455,-140.5552 2455,-166 2455,-166 2455,-166 1708.7804,-166 1708.7804,-166"/>
<polygon fill="#000000" stroke="#000000" points="1708.7804,-162.5001 1698.7804,-166 1708.7804,-169.5001 1708.7804,-162.5001"/>
</g>
<!-- GeneralSettingsComponent -->
<g id="node7" class="node">
<title>GeneralSettingsComponent</title>
<polygon fill="#ffffb3" stroke="#000000" points="2378.2478,-122 2207.7522,-122 2207.7522,-86 2378.2478,-86 2378.2478,-122"/>
<text text-anchor="middle" x="2293" y="-99.8" font-family="Times,serif" font-size="14.00" fill="#000000">GeneralSettingsComponent</text>
</g>
<!-- GeneralSettingsComponent&#45;&gt;AppModule -->
<g id="edge7" class="edge">
<title>GeneralSettingsComponent&#45;&gt;AppModule</title>
<path fill="none" stroke="#000000" d="M2293,-122.0336C2293,-139.0597 2293,-162 2293,-162 2293,-162 1708.7297,-162 1708.7297,-162"/>
<polygon fill="#000000" stroke="#000000" points="1708.7298,-158.5001 1698.7297,-162 1708.7297,-165.5001 1708.7298,-158.5001"/>
</g>
<!-- LoginComponent -->
<g id="node8" class="node">
<title>LoginComponent</title>
<polygon fill="#ffffb3" stroke="#000000" points="2189.2758,-122 2074.7242,-122 2074.7242,-86 2189.2758,-86 2189.2758,-122"/>
<text text-anchor="middle" x="2132" y="-99.8" font-family="Times,serif" font-size="14.00" fill="#000000">LoginComponent</text>
</g>
<!-- LoginComponent&#45;&gt;AppModule -->
<g id="edge8" class="edge">
<title>LoginComponent&#45;&gt;AppModule</title>
<path fill="none" stroke="#000000" d="M2132,-122.0091C2132,-138.0494 2132,-159 2132,-159 2132,-159 1708.7368,-159 1708.7368,-159"/>
<polygon fill="#000000" stroke="#000000" points="1708.7368,-155.5001 1698.7368,-159 1708.7367,-162.5001 1708.7368,-155.5001"/>
</g>
<!-- MDashboardComponent -->
<g id="node9" class="node">
<title>MDashboardComponent</title>
<polygon fill="#ffffb3" stroke="#000000" points="2056.4186,-122 1901.5814,-122 1901.5814,-86 2056.4186,-86 2056.4186,-122"/>
<text text-anchor="middle" x="1979" y="-99.8" font-family="Times,serif" font-size="14.00" fill="#000000">MDashboardComponent</text>
</g>
<!-- MDashboardComponent&#45;&gt;AppModule -->
<g id="edge9" class="edge">
<title>MDashboardComponent&#45;&gt;AppModule</title>
<path fill="none" stroke="#000000" d="M1979,-122.1243C1979,-136.7832 1979,-155 1979,-155 1979,-155 1708.7658,-155 1708.7658,-155"/>
<polygon fill="#000000" stroke="#000000" points="1708.7658,-151.5001 1698.7658,-155 1708.7657,-158.5001 1708.7658,-151.5001"/>
</g>
<!-- MeasurementConfigurationComponent -->
<g id="node10" class="node">
<title>MeasurementConfigurationComponent</title>
<polygon fill="#ffffb3" stroke="#000000" points="1884.066,-122 1647.934,-122 1647.934,-86 1884.066,-86 1884.066,-122"/>
<text text-anchor="middle" x="1766" y="-99.8" font-family="Times,serif" font-size="14.00" fill="#000000">MeasurementConfigurationComponent</text>
</g>
<!-- MeasurementConfigurationComponent&#45;&gt;AppModule -->
<g id="edge10" class="edge">
<title>MeasurementConfigurationComponent&#45;&gt;AppModule</title>
<path fill="none" stroke="#000000" d="M1673.3976,-122.1061C1673.3976,-122.1061 1673.3976,-140.991 1673.3976,-140.991"/>
<polygon fill="#000000" stroke="#000000" points="1669.8977,-140.9909 1673.3976,-150.991 1676.8977,-140.991 1669.8977,-140.9909"/>
</g>
<!-- MenuListItemComponent -->
<g id="node11" class="node">
<title>MenuListItemComponent</title>
<polygon fill="#ffffb3" stroke="#000000" points="1629.927,-122 1468.073,-122 1468.073,-86 1629.927,-86 1629.927,-122"/>
<text text-anchor="middle" x="1549" y="-99.8" font-family="Times,serif" font-size="14.00" fill="#000000">MenuListItemComponent</text>
</g>
<!-- MenuListItemComponent&#45;&gt;AppModule -->
<g id="edge11" class="edge">
<title>MenuListItemComponent&#45;&gt;AppModule</title>
<path fill="none" stroke="#000000" d="M1622.4425,-122.1061C1622.4425,-122.1061 1622.4425,-140.991 1622.4425,-140.991"/>
<polygon fill="#000000" stroke="#000000" points="1618.9426,-140.9909 1622.4425,-150.991 1625.9426,-140.991 1618.9426,-140.9909"/>
</g>
<!-- MyNavComponent -->
<g id="node12" class="node">
<title>MyNavComponent</title>
<polygon fill="#ffffb3" stroke="#000000" points="1450.0982,-122 1325.9018,-122 1325.9018,-86 1450.0982,-86 1450.0982,-122"/>
<text text-anchor="middle" x="1388" y="-99.8" font-family="Times,serif" font-size="14.00" fill="#000000">MyNavComponent</text>
</g>
<!-- MyNavComponent&#45;&gt;AppModule -->
<g id="edge12" class="edge">
<title>MyNavComponent&#45;&gt;AppModule</title>
<path fill="none" stroke="#000000" d="M1388,-122.1243C1388,-136.7832 1388,-155 1388,-155 1388,-155 1605.2639,-155 1605.2639,-155"/>
<polygon fill="#000000" stroke="#000000" points="1605.2639,-158.5001 1615.2639,-155 1605.2639,-151.5001 1605.2639,-158.5001"/>
</g>
<!-- PowerOffDialog -->
<g id="node13" class="node">
<title>PowerOffDialog</title>
<polygon fill="#ffffb3" stroke="#000000" points="1307.795,-122 1198.205,-122 1198.205,-86 1307.795,-86 1307.795,-122"/>
<text text-anchor="middle" x="1253" y="-99.8" font-family="Times,serif" font-size="14.00" fill="#000000">PowerOffDialog</text>
</g>
<!-- PowerOffDialog&#45;&gt;AppModule -->
<g id="edge13" class="edge">
<title>PowerOffDialog&#45;&gt;AppModule</title>
<path fill="none" stroke="#000000" d="M1253,-122.0091C1253,-138.0494 1253,-159 1253,-159 1253,-159 1605.2866,-159 1605.2866,-159"/>
<polygon fill="#000000" stroke="#000000" points="1605.2866,-162.5001 1615.2866,-159 1605.2865,-155.5001 1605.2866,-162.5001"/>
</g>
<!-- SupplyVoltagesComponent -->
<g id="node14" class="node">
<title>SupplyVoltagesComponent</title>
<polygon fill="#ffffb3" stroke="#000000" points="1180.2674,-122 1009.7326,-122 1009.7326,-86 1180.2674,-86 1180.2674,-122"/>
<text text-anchor="middle" x="1095" y="-99.8" font-family="Times,serif" font-size="14.00" fill="#000000">SupplyVoltagesComponent</text>
</g>
<!-- SupplyVoltagesComponent&#45;&gt;AppModule -->
<g id="edge14" class="edge">
<title>SupplyVoltagesComponent&#45;&gt;AppModule</title>
<path fill="none" stroke="#000000" d="M1095,-122.0336C1095,-139.0597 1095,-162 1095,-162 1095,-162 1605.2178,-162 1605.2178,-162"/>
<polygon fill="#000000" stroke="#000000" points="1605.2178,-165.5001 1615.2178,-162 1605.2178,-158.5001 1605.2178,-165.5001"/>
</g>
<!-- VideostreamComponent -->
<g id="node15" class="node">
<title>VideostreamComponent</title>
<polygon fill="#ffffb3" stroke="#000000" points="991.3599,-122 838.6401,-122 838.6401,-86 991.3599,-86 991.3599,-122"/>
<text text-anchor="middle" x="915" y="-99.8" font-family="Times,serif" font-size="14.00" fill="#000000">VideostreamComponent</text>
</g>
<!-- VideostreamComponent&#45;&gt;AppModule -->
<g id="edge15" class="edge">
<title>VideostreamComponent&#45;&gt;AppModule</title>
<path fill="none" stroke="#000000" d="M915,-122.2667C915,-140.5552 915,-166 915,-166 915,-166 1605.2493,-166 1605.2493,-166"/>
<polygon fill="#000000" stroke="#000000" points="1605.2493,-169.5001 1615.2493,-166 1605.2492,-162.5001 1605.2493,-169.5001"/>
</g>
<!-- AppComponent  -->
<g id="node18" class="node">
<title>AppComponent </title>
<polygon fill="#80b1d3" stroke="#000000" points="1711.439,-252 1602.561,-252 1602.561,-216 1711.439,-216 1711.439,-252"/>
<text text-anchor="middle" x="1657" y="-229.8" font-family="Times,serif" font-size="14.00" fill="#000000">AppComponent </text>
</g>
<!-- AppModule&#45;&gt;AppComponent  -->
<g id="edge17" class="edge">
<title>AppModule&#45;&gt;AppComponent </title>
<path fill="none" stroke="#000000" stroke-dasharray="1,5" d="M1657,-187.1061C1657,-187.1061 1657,-205.991 1657,-205.991"/>
<polygon fill="#000000" stroke="#000000" points="1653.5001,-205.9909 1657,-215.991 1660.5001,-205.991 1653.5001,-205.9909"/>
</g>
<!-- AppRoutingModule -->
<g id="node17" class="node">
<title>AppRoutingModule</title>
<polygon fill="#8dd3c7" stroke="#000000" points="815.2744,-122 812.2744,-126 791.2744,-126 788.2744,-122 686.7256,-122 686.7256,-86 815.2744,-86 815.2744,-122"/>
<text text-anchor="middle" x="751" y="-99.8" font-family="Times,serif" font-size="14.00" fill="#000000">AppRoutingModule</text>
</g>
<!-- AppRoutingModule&#45;&gt;AppModule -->
<g id="edge16" class="edge">
<title>AppRoutingModule&#45;&gt;AppModule</title>
<path fill="none" stroke="#000000" d="M751,-122.1061C751,-141.3391 751,-169 751,-169 751,-169 1605.1188,-169 1605.1188,-169"/>
<polygon fill="#000000" stroke="#000000" points="1605.1188,-172.5001 1615.1188,-169 1605.1187,-165.5001 1605.1188,-172.5001"/>
</g>
<!-- AppConfig -->
<g id="node19" class="node">
<title>AppConfig</title>
<ellipse fill="#fdb462" stroke="#000000" cx="609" cy="-104" rx="54.4778" ry="18"/>
<text text-anchor="middle" x="609" y="-99.8" font-family="Times,serif" font-size="14.00" fill="#000000">AppConfig</text>
</g>
<!-- AppConfig&#45;&gt;AppModule -->
<g id="edge18" class="edge">
<title>AppConfig&#45;&gt;AppModule</title>
<path fill="none" stroke="#000000" d="M609,-122.1289C609,-142.5724 609,-173 609,-173 609,-173 1605.2704,-173 1605.2704,-173"/>
<polygon fill="#000000" stroke="#000000" points="1605.2705,-176.5001 1615.2704,-173 1605.2704,-169.5001 1605.2705,-176.5001"/>
</g>
<!-- AuthenticationService -->
<g id="node20" class="node">
<title>AuthenticationService</title>
<ellipse fill="#fdb462" stroke="#000000" cx="439" cy="-104" rx="97.2683" ry="18"/>
<text text-anchor="middle" x="439" y="-99.8" font-family="Times,serif" font-size="14.00" fill="#000000">AuthenticationService</text>
</g>
<!-- AuthenticationService&#45;&gt;AppModule -->
<g id="edge19" class="edge">
<title>AuthenticationService&#45;&gt;AppModule</title>
<path fill="none" stroke="#000000" d="M439,-122.0449C439,-143.6623 439,-177 439,-177 439,-177 1605.0737,-177 1605.0737,-177"/>
<polygon fill="#000000" stroke="#000000" points="1605.0737,-180.5001 1615.0737,-177 1605.0736,-173.5001 1605.0737,-180.5001"/>
</g>
<!-- ErrorInterceptor -->
<g id="node21" class="node">
<title>ErrorInterceptor</title>
<ellipse fill="#fdb462" stroke="#000000" cx="250" cy="-104" rx="73.5329" ry="18"/>
<text text-anchor="middle" x="250" y="-99.8" font-family="Times,serif" font-size="14.00" fill="#000000">ErrorInterceptor</text>
</g>
<!-- ErrorInterceptor&#45;&gt;AppModule -->
<g id="edge20" class="edge">
<title>ErrorInterceptor&#45;&gt;AppModule</title>
<path fill="none" stroke="#000000" d="M250,-122.0109C250,-144.4852 250,-180 250,-180 250,-180 1605.273,-180 1605.273,-180"/>
<polygon fill="#000000" stroke="#000000" points="1605.2731,-183.5001 1615.273,-180 1605.273,-176.5001 1605.2731,-183.5001"/>
</g>
<!-- JwtInterceptor -->
<g id="node22" class="node">
<title>JwtInterceptor</title>
<ellipse fill="#fdb462" stroke="#000000" cx="91" cy="-104" rx="66.6094" ry="18"/>
<text text-anchor="middle" x="91" y="-99.8" font-family="Times,serif" font-size="14.00" fill="#000000">JwtInterceptor</text>
</g>
<!-- JwtInterceptor&#45;&gt;AppModule -->
<g id="edge21" class="edge">
<title>JwtInterceptor&#45;&gt;AppModule</title>
<path fill="none" stroke="#000000" d="M91,-122.1532C91,-145.7566 91,-184 91,-184 91,-184 1605.1133,-184 1605.1133,-184"/>
<polygon fill="#000000" stroke="#000000" points="1605.1133,-187.5001 1615.1133,-184 1605.1132,-180.5001 1605.1133,-187.5001"/>
</g>
</g>
</svg>
